<svg xmlns="http://www.w3.org/2000/svg" viewBox="-0.8 -48.3 270.0 82.8">
  <defs>
    <linearGradient id="grad" gradientUnits="userSpaceOnUse" x1="0" y1="-44.31" x2="0" y2="0.51">
      <stop offset="0%" stop-color="#42E695"/>
      <stop offset="100%" stop-color="#3BB2B8"/>
    </linearGradient>
  </defs>
  <path d="M 13.43 -4.6 L 13.43 -21.75 C 13.43 -24.38 15.62 -26.57 18.25 -26.57 C 20.88 -26.57 23.07 -24.38 23.07 -21.75 L 23.07 -4.6 C 23.07 -1.75 25.33 0.51 28.18 0.51 C 31.02 0.51 33.29 -1.75 33.29 -4.6 L 33.29 -21.75 C 33.29 -24.38 35.48 -26.57 38.18 -26.57 C 40.73 -26.57 42.92 -24.38 42.92 -21.75 L 42.92 -4.6 C 42.92 -1.75 45.19 0.51 48.03 0.51 C 50.88 0.51 53.14 -1.75 53.14 -4.6 L 53.14 -21.75 C 53.14 -30.08 46.43 -36.79 38.18 -36.79 C 34.31 -36.79 30.88 -35.41 28.18 -33.07 C 25.55 -35.41 22.05 -36.79 18.25 -36.79 C 9.93 -36.79 3.21 -30.08 3.21 -21.75 L 3.21 -4.6 C 3.21 -1.75 5.47 0.51 8.32 0.51 C 11.17 0.51 13.43 -1.75 13.43 -4.6 Z M 78.11 -9.93 C 73.58 -9.93 69.79 -13.72 69.79 -18.25 C 69.79 -22.78 73.58 -26.57 78.11 -26.57 C 82.64 -26.57 86.43 -22.78 86.43 -18.25 C 86.43 -13.72 82.64 -9.93 78.11 -9.93 Z M 78.11 0.29 C 88.33 0.29 96.65 -8.03 96.65 -18.25 C 96.65 -28.47 88.33 -36.79 78.11 -36.79 C 67.89 -36.79 59.57 -28.47 59.57 -18.25 C 59.57 -8.03 67.89 0.29 78.11 0.29 Z M 113.3 -4.6 L 113.3 -21.75 C 113.3 -24.38 115.49 -26.57 118.11 -26.57 C 120.74 -26.57 122.93 -24.38 122.93 -21.75 L 122.93 -4.6 C 122.93 -1.75 125.19 0.51 128.04 0.51 C 130.89 0.51 133.15 -1.75 133.15 -4.6 L 133.15 -21.75 C 133.15 -24.38 135.34 -26.57 138.04 -26.57 C 140.6 -26.57 142.79 -24.38 142.79 -21.75 L 142.79 -4.6 C 142.79 -1.75 145.05 0.51 147.9 0.51 C 150.75 0.51 153.01 -1.75 153.01 -4.6 L 153.01 -21.75 C 153.01 -30.08 146.29 -36.79 138.04 -36.79 C 134.17 -36.79 130.74 -35.41 128.04 -33.07 C 125.41 -35.41 121.91 -36.79 118.11 -36.79 C 109.79 -36.79 103.08 -30.08 103.08 -21.75 L 103.08 -4.6 C 103.08 -1.75 105.34 0.51 108.19 0.51 C 111.03 0.51 113.3 -1.75 113.3 -4.6 Z M 159.43 -18.25 C 159.43 -8.03 167.68 0.29 177.97 0.29 C 180.75 0.29 183.45 -0.36 185.78 -1.46 C 187.54 -2.26 188.7 -4.01 188.7 -5.99 C 188.7 -8.76 186.44 -11.02 183.67 -11.02 C 182.86 -11.02 182.13 -10.88 181.48 -10.58 C 180.53 -10.15 179.36 -9.93 177.97 -9.93 C 176.44 -9.93 175.13 -10.15 173.96 -10.66 L 189.36 -22.99 C 192.65 -25.55 192.72 -30.22 189.43 -32.78 C 186.37 -35.19 182.28 -36.79 177.97 -36.79 C 167.68 -36.79 159.43 -28.47 159.43 -18.25 Z M 169.8 -16.43 C 169.72 -16.94 169.65 -17.59 169.65 -18.25 C 169.65 -23.51 172.64 -26.57 177.97 -26.57 C 179.43 -26.57 180.46 -26.35 181.55 -25.77 Z M 208.49 -4.6 L 208.49 -18.1 C 208.49 -22.78 212.28 -26.57 216.96 -26.57 C 221.55 -26.57 225.35 -22.78 225.35 -18.1 L 225.35 -4.6 C 225.35 -1.75 227.61 0.51 230.46 0.51 C 233.31 0.51 235.57 -1.75 235.57 -4.6 L 235.57 -18.1 C 235.57 -28.47 227.25 -36.79 216.96 -36.79 C 206.59 -36.79 198.27 -28.47 198.27 -18.1 L 198.27 -4.6 C 198.27 -1.75 200.53 0.51 203.38 0.51 C 206.22 0.51 208.49 -1.75 208.49 -4.6 Z M 241.99 -39.2 L 241.99 -14.89 C 241.99 -6.57 248.71 0.29 257.18 0.29 C 258.71 0.29 260.25 0.07 261.63 -0.36 C 263.75 -1.02 265.21 -2.92 265.21 -5.26 C 265.21 -8.03 262.95 -10.29 260.17 -10.29 C 259.59 -10.29 259.15 -10.22 258.64 -10.07 C 258.2 -10 257.69 -9.93 257.18 -9.93 C 254.4 -9.93 252.21 -12.12 252.21 -14.89 L 252.21 -28.54 L 256.16 -28.54 C 259 -28.54 261.27 -30.81 261.27 -33.65 C 261.27 -36.5 259 -38.76 256.16 -38.76 L 252.21 -38.76 L 252.21 -39.2 C 252.21 -42.05 249.95 -44.31 247.1 -44.31 C 244.26 -44.31 241.99 -42.05 241.99 -39.2 Z" fill="url(#grad)"/>
  <text x="134.21" y="16" text-anchor="middle" fill="#6AA0B8"
        font-family="'Poppins','Segoe UI',sans-serif" font-size="7.5" font-weight="400"
        letter-spacing="0.4">Domain architecture for the AI era</text>
</svg>